<svg xmlns="http://www.w3.org/2000/svg" width="402" height="874" viewBox="0 0 402 874" fill="none">
  <defs>
    <linearGradient id="bezel" x1="0" y1="0" x2="402" y2="0" gradientUnits="userSpaceOnUse">
      <stop offset="0.000%" stop-color="#2c2c30"/>
      <stop offset="8.775%" stop-color="#4a4a50"/>
      <stop offset="13.945%" stop-color="#6e6e74"/>
      <stop offset="27.316%" stop-color="#76767c"/>
      <stop offset="33.725%" stop-color="#66666c"/>
      <stop offset="53.427%" stop-color="#525258"/>
      <stop offset="76.606%" stop-color="#44444a"/>
      <stop offset="86.748%" stop-color="#3a3a40"/>
      <stop offset="100.000%" stop-color="#2e2e34"/>
    </linearGradient>
    <linearGradient id="edgeHi" x1="0" y1="0" x2="0" y2="1">
      <stop offset="0" stop-color="rgba(255,255,255,0.55)"/>
      <stop offset="0.4" stop-color="rgba(255,255,255,0.06)"/>
      <stop offset="1" stop-color="rgba(0,0,0,0.35)"/>
    </linearGradient>
    <!-- Black front glass: the bezel of a real device is near-black, the metal
         is only a thin outer rail. Applied as a ring over the metallic body. -->
    <linearGradient id="glass" x1="0" y1="0" x2="0" y2="1">
      <stop offset="0" stop-color="#26262b"/>
      <stop offset="0.5" stop-color="#0e0e10"/>
      <stop offset="1" stop-color="#060608"/>
    </linearGradient>
    <filter id="ao" x="-20%" y="-20%" width="140%" height="140%">
      <feGaussianBlur stdDeviation="5"/>
    </filter>
    <linearGradient id="btn" x1="0" y1="0" x2="1" y2="0">
      <stop offset="0" stop-color="#3a3a40"/>
      <stop offset="0.5" stop-color="#0c0c0e"/>
      <stop offset="1" stop-color="#2a2a30"/>
    </linearGradient>
    <mask id="screen">
      <rect x="0" y="0" width="402" height="874" fill="white"/>
      <path d="M 76.00 14.00 L 326.00 14.00 L 330.05 14.13 L 334.09 14.53 L 338.10 15.19 L 342.05 16.11 L 345.93 17.29 L 349.73 18.72 L 353.42 20.39 L 357.00 22.31 L 360.45 24.45 L 363.74 26.81 L 366.88 29.39 L 369.84 32.16 L 372.61 35.12 L 375.19 38.26 L 377.55 41.55 L 379.69 45.00 L 381.61 48.58 L 383.28 52.27 L 384.71 56.07 L 385.89 59.95 L 386.81 63.90 L 387.47 67.91 L 387.87 71.95 L 388.00 76.00 L 388.00 798.00 L 387.87 802.05 L 387.47 806.09 L 386.81 810.10 L 385.89 814.05 L 384.71 817.93 L 383.28 821.73 L 381.61 825.42 L 379.69 829.00 L 377.55 832.45 L 375.19 835.74 L 372.61 838.88 L 369.84 841.84 L 366.88 844.61 L 363.74 847.19 L 360.45 849.55 L 357.00 851.69 L 353.42 853.61 L 349.73 855.28 L 345.93 856.71 L 342.05 857.89 L 338.10 858.81 L 334.09 859.47 L 330.05 859.87 L 326.00 860.00 L 76.00 860.00 L 71.95 859.87 L 67.91 859.47 L 63.90 858.81 L 59.95 857.89 L 56.07 856.71 L 52.27 855.28 L 48.58 853.61 L 45.00 851.69 L 41.55 849.55 L 38.26 847.19 L 35.12 844.61 L 32.16 841.84 L 29.39 838.88 L 26.81 835.74 L 24.45 832.45 L 22.31 829.00 L 20.39 825.42 L 18.72 821.73 L 17.29 817.93 L 16.11 814.05 L 15.19 810.10 L 14.53 806.09 L 14.13 802.05 L 14.00 798.00 L 14.00 798.00 L 14.13 71.95 L 14.53 67.91 L 15.19 63.90 L 16.11 59.95 L 17.29 56.07 L 18.72 52.27 L 20.39 48.58 L 22.31 45.00 L 24.45 41.55 L 26.81 38.26 L 29.39 35.12 L 32.16 32.16 L 35.12 29.39 L 38.26 26.81 L 41.55 24.45 L 45.00 22.31 L 48.58 20.39 L 52.27 18.72 L 56.07 17.29 L 59.95 16.11 L 63.90 15.19 L 67.91 14.53 L 71.95 14.13 L 76.00 14.00 Z" fill="black"/>
    </mask>
    <clipPath id="screenClip">
      <path d="M 76.00 14.00 L 326.00 14.00 L 330.05 14.13 L 334.09 14.53 L 338.10 15.19 L 342.05 16.11 L 345.93 17.29 L 349.73 18.72 L 353.42 20.39 L 357.00 22.31 L 360.45 24.45 L 363.74 26.81 L 366.88 29.39 L 369.84 32.16 L 372.61 35.12 L 375.19 38.26 L 377.55 41.55 L 379.69 45.00 L 381.61 48.58 L 383.28 52.27 L 384.71 56.07 L 385.89 59.95 L 386.81 63.90 L 387.47 67.91 L 387.87 71.95 L 388.00 76.00 L 388.00 798.00 L 387.87 802.05 L 387.47 806.09 L 386.81 810.10 L 385.89 814.05 L 384.71 817.93 L 383.28 821.73 L 381.61 825.42 L 379.69 829.00 L 377.55 832.45 L 375.19 835.74 L 372.61 838.88 L 369.84 841.84 L 366.88 844.61 L 363.74 847.19 L 360.45 849.55 L 357.00 851.69 L 353.42 853.61 L 349.73 855.28 L 345.93 856.71 L 342.05 857.89 L 338.10 858.81 L 334.09 859.47 L 330.05 859.87 L 326.00 860.00 L 76.00 860.00 L 71.95 859.87 L 67.91 859.47 L 63.90 858.81 L 59.95 857.89 L 56.07 856.71 L 52.27 855.28 L 48.58 853.61 L 45.00 851.69 L 41.55 849.55 L 38.26 847.19 L 35.12 844.61 L 32.16 841.84 L 29.39 838.88 L 26.81 835.74 L 24.45 832.45 L 22.31 829.00 L 20.39 825.42 L 18.72 821.73 L 17.29 817.93 L 16.11 814.05 L 15.19 810.10 L 14.53 806.09 L 14.13 802.05 L 14.00 798.00 L 14.00 798.00 L 14.13 71.95 L 14.53 67.91 L 15.19 63.90 L 16.11 59.95 L 17.29 56.07 L 18.72 52.27 L 20.39 48.58 L 22.31 45.00 L 24.45 41.55 L 26.81 38.26 L 29.39 35.12 L 32.16 32.16 L 35.12 29.39 L 38.26 26.81 L 41.55 24.45 L 45.00 22.31 L 48.58 20.39 L 52.27 18.72 L 56.07 17.29 L 59.95 16.11 L 63.90 15.19 L 67.91 14.53 L 71.95 14.13 L 76.00 14.00 Z"/>
    </clipPath>

  </defs>
  <!-- Outer body with the screen masked out to transparency. -->
  <path d="M 76.00 6.00 L 326.00 6.00 L 330.58 6.15 L 335.14 6.60 L 339.66 7.35 L 344.12 8.39 L 348.50 9.71 L 352.79 11.33 L 356.96 13.22 L 361.00 15.38 L 364.89 17.80 L 368.61 20.47 L 372.15 23.37 L 375.50 26.50 L 378.63 29.85 L 381.53 33.39 L 384.20 37.11 L 386.62 41.00 L 388.78 45.04 L 390.67 49.21 L 392.29 53.50 L 393.61 57.88 L 394.65 62.34 L 395.40 66.86 L 395.85 71.42 L 396.00 76.00 L 396.00 798.00 L 395.85 802.58 L 395.40 807.14 L 394.65 811.66 L 393.61 816.12 L 392.29 820.50 L 390.67 824.79 L 388.78 828.96 L 386.62 833.00 L 384.20 836.89 L 381.53 840.61 L 378.63 844.15 L 375.50 847.50 L 372.15 850.63 L 368.61 853.53 L 364.89 856.20 L 361.00 858.62 L 356.96 860.78 L 352.79 862.67 L 348.50 864.29 L 344.12 865.61 L 339.66 866.65 L 335.14 867.40 L 330.58 867.85 L 326.00 868.00 L 76.00 868.00 L 71.42 867.85 L 66.86 867.40 L 62.34 866.65 L 57.88 865.61 L 53.50 864.29 L 49.21 862.67 L 45.04 860.78 L 41.00 858.62 L 37.11 856.20 L 33.39 853.53 L 29.85 850.63 L 26.50 847.50 L 23.37 844.15 L 20.47 840.61 L 17.80 836.89 L 15.38 833.00 L 13.22 828.96 L 11.33 824.79 L 9.71 820.50 L 8.39 816.12 L 7.35 811.66 L 6.60 807.14 L 6.15 802.58 L 6.00 798.00 L 6.00 798.00 L 6.15 71.42 L 6.60 66.86 L 7.35 62.34 L 8.39 57.88 L 9.71 53.50 L 11.33 49.21 L 13.22 45.04 L 15.38 41.00 L 17.80 37.11 L 20.47 33.39 L 23.37 29.85 L 26.50 26.50 L 29.85 23.37 L 33.39 20.47 L 37.11 17.80 L 41.00 15.38 L 45.04 13.22 L 49.21 11.33 L 53.50 9.71 L 57.88 8.39 L 62.34 7.35 L 66.86 6.60 L 71.42 6.15 L 76.00 6.00 Z" fill="url(#bezel)" stroke="#060607" stroke-width="2" mask="url(#screen)"/>
  <!-- Lit rim highlight around the body edge. -->
  <path d="M 76.00 6.00 L 326.00 6.00 L 330.58 6.15 L 335.14 6.60 L 339.66 7.35 L 344.12 8.39 L 348.50 9.71 L 352.79 11.33 L 356.96 13.22 L 361.00 15.38 L 364.89 17.80 L 368.61 20.47 L 372.15 23.37 L 375.50 26.50 L 378.63 29.85 L 381.53 33.39 L 384.20 37.11 L 386.62 41.00 L 388.78 45.04 L 390.67 49.21 L 392.29 53.50 L 393.61 57.88 L 394.65 62.34 L 395.40 66.86 L 395.85 71.42 L 396.00 76.00 L 396.00 798.00 L 395.85 802.58 L 395.40 807.14 L 394.65 811.66 L 393.61 816.12 L 392.29 820.50 L 390.67 824.79 L 388.78 828.96 L 386.62 833.00 L 384.20 836.89 L 381.53 840.61 L 378.63 844.15 L 375.50 847.50 L 372.15 850.63 L 368.61 853.53 L 364.89 856.20 L 361.00 858.62 L 356.96 860.78 L 352.79 862.67 L 348.50 864.29 L 344.12 865.61 L 339.66 866.65 L 335.14 867.40 L 330.58 867.85 L 326.00 868.00 L 76.00 868.00 L 71.42 867.85 L 66.86 867.40 L 62.34 866.65 L 57.88 865.61 L 53.50 864.29 L 49.21 862.67 L 45.04 860.78 L 41.00 858.62 L 37.11 856.20 L 33.39 853.53 L 29.85 850.63 L 26.50 847.50 L 23.37 844.15 L 20.47 840.61 L 17.80 836.89 L 15.38 833.00 L 13.22 828.96 L 11.33 824.79 L 9.71 820.50 L 8.39 816.12 L 7.35 811.66 L 6.60 807.14 L 6.15 802.58 L 6.00 798.00 L 6.00 798.00 L 6.15 71.42 L 6.60 66.86 L 7.35 62.34 L 8.39 57.88 L 9.71 53.50 L 11.33 49.21 L 13.22 45.04 L 15.38 41.00 L 17.80 37.11 L 20.47 33.39 L 23.37 29.85 L 26.50 26.50 L 29.85 23.37 L 33.39 20.47 L 37.11 17.80 L 41.00 15.38 L 45.04 13.22 L 49.21 11.33 L 53.50 9.71 L 57.88 8.39 L 62.34 7.35 L 66.86 6.60 L 71.42 6.15 L 76.00 6.00 Z" fill="none" stroke="url(#edgeHi)" stroke-width="1.4" opacity="0.85" mask="url(#screen)"/>
  <path d="M 76.00 10.00 L 326.00 10.00 L 330.32 10.14 L 334.61 10.56 L 338.88 11.27 L 343.08 12.25 L 347.22 13.50 L 351.26 15.02 L 355.19 16.81 L 359.00 18.84 L 362.67 21.12 L 366.18 23.64 L 369.52 26.38 L 372.67 29.33 L 375.62 32.48 L 378.36 35.82 L 380.88 39.33 L 383.16 43.00 L 385.19 46.81 L 386.98 50.74 L 388.50 54.78 L 389.75 58.92 L 390.73 63.12 L 391.44 67.39 L 391.86 71.68 L 392.00 76.00 L 392.00 798.00 L 391.86 802.32 L 391.44 806.61 L 390.73 810.88 L 389.75 815.08 L 388.50 819.22 L 386.98 823.26 L 385.19 827.19 L 383.16 831.00 L 380.88 834.67 L 378.36 838.18 L 375.62 841.52 L 372.67 844.67 L 369.52 847.62 L 366.18 850.36 L 362.67 852.88 L 359.00 855.16 L 355.19 857.19 L 351.26 858.98 L 347.22 860.50 L 343.08 861.75 L 338.88 862.73 L 334.61 863.44 L 330.32 863.86 L 326.00 864.00 L 76.00 864.00 L 71.68 863.86 L 67.39 863.44 L 63.12 862.73 L 58.92 861.75 L 54.78 860.50 L 50.74 858.98 L 46.81 857.19 L 43.00 855.16 L 39.33 852.88 L 35.82 850.36 L 32.48 847.62 L 29.33 844.67 L 26.38 841.52 L 23.64 838.18 L 21.12 834.67 L 18.84 831.00 L 16.81 827.19 L 15.02 823.26 L 13.50 819.22 L 12.25 815.08 L 11.27 810.88 L 10.56 806.61 L 10.14 802.32 L 10.00 798.00 L 10.00 798.00 L 10.14 71.68 L 10.56 67.39 L 11.27 63.12 L 12.25 58.92 L 13.50 54.78 L 15.02 50.74 L 16.81 46.81 L 18.84 43.00 L 21.12 39.33 L 23.64 35.82 L 26.38 32.48 L 29.33 29.33 L 32.48 26.38 L 35.82 23.64 L 39.33 21.12 L 43.00 18.84 L 46.81 16.81 L 50.74 15.02 L 54.78 13.50 L 58.92 12.25 L 63.12 11.27 L 67.39 10.56 L 71.68 10.14 L 76.00 10.00 Z" fill="url(#glass)" mask="url(#screen)"/>

  <!-- Screen-edge ambient occlusion. -->
  <g clip-path="url(#screenClip)">
    <path d="M 76.00 14.00 L 326.00 14.00 L 330.05 14.13 L 334.09 14.53 L 338.10 15.19 L 342.05 16.11 L 345.93 17.29 L 349.73 18.72 L 353.42 20.39 L 357.00 22.31 L 360.45 24.45 L 363.74 26.81 L 366.88 29.39 L 369.84 32.16 L 372.61 35.12 L 375.19 38.26 L 377.55 41.55 L 379.69 45.00 L 381.61 48.58 L 383.28 52.27 L 384.71 56.07 L 385.89 59.95 L 386.81 63.90 L 387.47 67.91 L 387.87 71.95 L 388.00 76.00 L 388.00 798.00 L 387.87 802.05 L 387.47 806.09 L 386.81 810.10 L 385.89 814.05 L 384.71 817.93 L 383.28 821.73 L 381.61 825.42 L 379.69 829.00 L 377.55 832.45 L 375.19 835.74 L 372.61 838.88 L 369.84 841.84 L 366.88 844.61 L 363.74 847.19 L 360.45 849.55 L 357.00 851.69 L 353.42 853.61 L 349.73 855.28 L 345.93 856.71 L 342.05 857.89 L 338.10 858.81 L 334.09 859.47 L 330.05 859.87 L 326.00 860.00 L 76.00 860.00 L 71.95 859.87 L 67.91 859.47 L 63.90 858.81 L 59.95 857.89 L 56.07 856.71 L 52.27 855.28 L 48.58 853.61 L 45.00 851.69 L 41.55 849.55 L 38.26 847.19 L 35.12 844.61 L 32.16 841.84 L 29.39 838.88 L 26.81 835.74 L 24.45 832.45 L 22.31 829.00 L 20.39 825.42 L 18.72 821.73 L 17.29 817.93 L 16.11 814.05 L 15.19 810.10 L 14.53 806.09 L 14.13 802.05 L 14.00 798.00 L 14.00 798.00 L 14.13 71.95 L 14.53 67.91 L 15.19 63.90 L 16.11 59.95 L 17.29 56.07 L 18.72 52.27 L 20.39 48.58 L 22.31 45.00 L 24.45 41.55 L 26.81 38.26 L 29.39 35.12 L 32.16 32.16 L 35.12 29.39 L 38.26 26.81 L 41.55 24.45 L 45.00 22.31 L 48.58 20.39 L 52.27 18.72 L 56.07 17.29 L 59.95 16.11 L 63.90 15.19 L 67.91 14.53 L 71.95 14.13 L 76.00 14.00 Z" fill="none" stroke="rgba(0,0,0,0.5)" stroke-width="14" filter="url(#ao)"/>
  </g>

  <!-- Screen-edge highlight rim (lit bezel lip next to the glass). -->
  <path d="M 76.00 14.00 L 326.00 14.00 L 330.05 14.13 L 334.09 14.53 L 338.10 15.19 L 342.05 16.11 L 345.93 17.29 L 349.73 18.72 L 353.42 20.39 L 357.00 22.31 L 360.45 24.45 L 363.74 26.81 L 366.88 29.39 L 369.84 32.16 L 372.61 35.12 L 375.19 38.26 L 377.55 41.55 L 379.69 45.00 L 381.61 48.58 L 383.28 52.27 L 384.71 56.07 L 385.89 59.95 L 386.81 63.90 L 387.47 67.91 L 387.87 71.95 L 388.00 76.00 L 388.00 798.00 L 387.87 802.05 L 387.47 806.09 L 386.81 810.10 L 385.89 814.05 L 384.71 817.93 L 383.28 821.73 L 381.61 825.42 L 379.69 829.00 L 377.55 832.45 L 375.19 835.74 L 372.61 838.88 L 369.84 841.84 L 366.88 844.61 L 363.74 847.19 L 360.45 849.55 L 357.00 851.69 L 353.42 853.61 L 349.73 855.28 L 345.93 856.71 L 342.05 857.89 L 338.10 858.81 L 334.09 859.47 L 330.05 859.87 L 326.00 860.00 L 76.00 860.00 L 71.95 859.87 L 67.91 859.47 L 63.90 858.81 L 59.95 857.89 L 56.07 856.71 L 52.27 855.28 L 48.58 853.61 L 45.00 851.69 L 41.55 849.55 L 38.26 847.19 L 35.12 844.61 L 32.16 841.84 L 29.39 838.88 L 26.81 835.74 L 24.45 832.45 L 22.31 829.00 L 20.39 825.42 L 18.72 821.73 L 17.29 817.93 L 16.11 814.05 L 15.19 810.10 L 14.53 806.09 L 14.13 802.05 L 14.00 798.00 L 14.00 798.00 L 14.13 71.95 L 14.53 67.91 L 15.19 63.90 L 16.11 59.95 L 17.29 56.07 L 18.72 52.27 L 20.39 48.58 L 22.31 45.00 L 24.45 41.55 L 26.81 38.26 L 29.39 35.12 L 32.16 32.16 L 35.12 29.39 L 38.26 26.81 L 41.55 24.45 L 45.00 22.31 L 48.58 20.39 L 52.27 18.72 L 56.07 17.29 L 59.95 16.11 L 63.90 15.19 L 67.91 14.53 L 71.95 14.13 L 76.00 14.00 Z" fill="none" stroke="url(#edgeHi)" stroke-width="1.2" opacity="0.5"/>


  <rect x="153" y="23" width="96" height="28" rx="14" ry="14" fill="#0a0a0a"/>
  <circle cx="174.5" cy="37" r="6" fill="#15151a"/>
  <circle cx="174.5" cy="37" r="2.6" fill="#060608"/>
  <circle cx="172.9" cy="35.4" r="0.9" fill="rgba(255,255,255,0.5)"/>
  <rect x="171" y="9" width="60" height="3" rx="1.5" fill="#060607"/>
</svg>
