<svg xmlns="http://www.w3.org/2000/svg" width="410" height="502" viewBox="0 0 410 502" fill="none">
  <!-- Apple Watch Ultra frame-only overlay: flat titanium case with a real
       transparent screen cutout (via mask) so the media shows through. Screen
       area matches the real 410x502 display. -->
  <defs>
    <linearGradient id="wu-case" x1="0" y1="0" x2="1" y2="1">
      <stop offset="0" stop-color="#9a9aa0"/>
      <stop offset="1" stop-color="#4a4a50"/>
    </linearGradient>
    <linearGradient id="edgeHi" x1="0" y1="0" x2="0" y2="1">
      <stop offset="0" stop-color="rgba(255,255,255,0.32)"/>
      <stop offset="0.45" stop-color="rgba(255,255,255,0.05)"/>
      <stop offset="1" stop-color="rgba(0,0,0,0.30)"/>
    </linearGradient>
    <mask id="wu-screen">
      <rect x="0" y="0" width="410" height="502" fill="white"/>
      <rect x="20" y="24" width="370" height="454" rx="82" ry="82" fill="black"/>
    </mask>
  </defs>
  <!-- Flat titanium case with the screen masked out to transparency -->
  <rect x="9" y="8" width="392" height="486" rx="110" ry="110" fill="url(#wu-case)" stroke="#0a0a0a" stroke-width="2" mask="url(#wu-screen)"/>
  <!-- Screen edge rim: bright top / dark bottom -->
  <rect x="20" y="24" width="370" height="454" rx="82" ry="82" fill="none" stroke="url(#edgeHi)" stroke-width="1.5"/>
  <!-- Digital Crown: cellular red ring around the international-orange core -->
  <rect x="390" y="143" width="20" height="70" rx="10" fill="none" stroke="#ff3b30" stroke-width="1.5"/>
  <rect x="393" y="146" width="14" height="64" rx="7" fill="#3d3d42"/>
  <rect x="393" y="146" width="14" height="14" rx="7" fill="#ff5f1f"/>
  <!-- Side button -->
  <rect x="395" y="228" width="10" height="86" rx="5" fill="#3d3d42"/>
  <!-- Speaker grille (left side) -->
  <rect x="7" y="214" width="6" height="78" rx="3" fill="#333338"/>
  <!-- Action Button (signature international orange) -->
  <rect x="7" y="150" width="6" height="44" rx="3" fill="#ff5f1f"/>
</svg>
